<?xml version="1.0" encoding="utf-8"?>
<!-- Generator: Adobe Illustrator 27.5.0, SVG Export Plug-In . SVG Version: 6.00 Build 0)  -->
<svg version="1.1" id="Calque_1" xmlns="http://www.w3.org/2000/svg" xmlns:xlink="http://www.w3.org/1999/xlink" x="0px" y="0px"
	 viewBox="0 0 1920 1080" style="enable-background:new 0 0 1920 1080;" xml:space="preserve">
<style type="text/css">
	.st0{fill:none;stroke:#000000;stroke-miterlimit:10;}
	.st1{fill:none;}
	.st2{fill:#FF8A2A;}
</style>
<path d="M1120.82,471.79c-1.29,0.2-3.43,0.72-5.23,0.79c-4.17,0.17-4-4.37-4.98-7.22c-0.57-1.63-0.47-2.65-2.27-2.57
	c-1.73,0.07-3.53-0.07-5.04-0.01c-5.18,0.21-7.06,0.15-7.29,4.91c-0.16,3.03,0.71,6.6-4.11,6.8c-1.65,0.07-3.26-0.3-5.7-0.2
	c-2.59,0.11-3.02-1.6-3.13-4.19c-0.21-5.11,0.52-9.97,0.75-14.88c0.17-4.55,1.11-7.97,1.28-12.59c0.21-8.94,1.64-17.8,1.64-26.52
	c0.02-3.03,0.98-4.15,3.91-4.77c4-0.89,7.94-1.41,12.19-1.59c4.96-0.21,5.38,4.53,6.45,7.8c2.8,8.46,5.05,17.59,8.22,26.11
	c1.95,5.32,2.98,11.05,4.95,16.8c0.74,2.2,2.15,4.81,2.53,7.17C1125.1,470.68,1124.05,471.37,1120.82,471.79z M1082.13,399.09
	c-0.11-2.66,3.81-7.29,4.53-7.32c0.79-0.03,2.87,1.39,3.97,2c2.81,1.61,5.34,3.74,8.22,5.28c1.03,0.61,2.78,1.11,2.84,2.4
	c0.01,0.22-1.7,5.91-3.93,6.07c-0.58,0.02-1.39-0.59-1.91-0.86c-1.47-0.59-3.06-0.88-4.46-1.62c-1.77-0.86-3.32-1.95-5.09-2.74
	C1084.76,401.5,1082.2,400.6,1082.13,399.09z M1105.89,450.57c-0.07-1.8-2.44-8.55-3.52-11.96c-0.99-3.06-2.67-7.02-3.89-10.43
	c-0.04,2.45-0.58,5.07-0.84,7.46c-0.64,5.36-0.87,10.41-1.08,15.61C1099.06,451,1101.64,450.75,1105.89,450.57z"/>
<path class="st0" d="M95.5,649.5"/>
<path class="st1" d="M906,623c25-16,53-25,80-37c35.84-15.62,65.77-40.54,96-64.65v-0.58c-43.4,34.11-87.52,62.4-141,76.23
	c-47,12-96,8-142-9c-38-15-70-38-106-63c-21-15-41-27-66-31c-3.01-0.46-6.01-0.94-9-1.41v125.15c9.96,1.99,19.95,4.09,30,6.26
	C737,642,820,620,906,623z"/>
<path class="st1" d="M986,586c-27,12-55,21-80,37c-86-3-169,19-258,1c-10.05-2.17-20.04-4.27-30-6.26V645h464V521.35
	C1051.77,545.46,1021.84,570.38,986,586z"/>
<path class="st1" d="M618,492.59c2.99,0.47,5.99,0.95,9,1.41c25,4,45,16,66,31c36,25,68,48,106,63c46,17,95,21,142,9
	c53.48-13.83,97.6-42.12,141-76.23"/>
<g>
	<path class="st2" d="M711.77,601.7c-0.06,3.43-0.36,6.83-0.41,10.12c-0.07,4.28,0.07,8.32,0.28,12.01
		c0.34,6.11,2.68,12.32,2.58,18.28c-0.08,4.54-10,3.87-15.71,3.79c-6.18-0.09-13.72-0.47-19-0.64c-4.56-0.15-7.94-0.02-7.91-4.56
		c0.01-1.36,0.26-2.87,0.27-3.93c-0.5-11.37-0.45-22.85-1.44-34.13c-1.33-15.14-1.58-30.58-3.58-45.6
		c-0.86-6.44,0.08-13.65-14.36-15.28c-4.41-0.5-8.08-0.42-12-0.82c-9.55-0.96-10.77-4.19-10.77-9.09c0-0.95,0-1.74,0-2.53
		c0-2.53-1.72-7.14-1.72-10.94c0-4.44,2.95-5.39,8.11-4.78c3.93,0.47,8.37,1.66,11.06,2.18c6.86,1.34,9.84,1.5,16.72,3
		c20.88,4.56,41.59,9.75,62.25,15.24c0.99,0.33,2.49,0.63,3.98,0.92c1.99,0.39,3.99,0.79,6.24,1.24c7.74,1.55,15.39,3.09,15.24,7.76
		c-0.08,2.4-1.68,5.26-2.01,6.93c-0.83,4.25-0.71,11.79-11.36,10.1c-7.68-1.22-12.1-3.44-19.5-4.58c-6.91-1.06-7.96,2.82-8.02,6.68
		c-0.11,6.87-0.47,14.01,0.39,21.11C711.74,589.55,711.87,595.56,711.77,601.7z"/>
	<path class="st2" d="M888.72,632.32c-3.14,6.24-23.4,13.5-33.28,13.38c-8.52-0.1-17.25-8.95-22.98-16.1
		c-2.9-3.54-12.53-11.87-18.36-11.88c-2.91-0.01-3.37,3.54-3.46,4.93c-0.29,4.69,0.57,8.98,0.88,13.18c0.11,1.49,1.43,4.18,1.3,6.21
		c-0.26,4.18-10.59,3.39-15.64,3.8c-7.47,0.59-15.25,1.65-22.71,1.65c-9.14,0-7.85-6.56-8.19-11.2c-0.41-5.67-0.79-11.39-1.48-17
		c-0.19-1.56-2.29-16.35-2.77-16.64c-3.38-13.9-1.77-28.87-5.41-42.38c-1.61-5.96-1.15-10.52-2.22-16.7
		c-0.21-1.24-0.68-2.65-0.63-3.98c0.2-5.85,9.19-5.4,17.54-4.37c15.75,1.94,31.65,3.73,47.34,5.06c13.84,1.17,28.15,7.15,40,14.04
		c11.08,6.44,20.96,16.8,19.66,30.69c-1.06,11.26-10.33,19.43-20.62,22.87c-0.07,1.03,1.08,1.77,3.16,3.14
		c8.39,5.69,16.51,11.77,24.76,17.67C887.45,629.98,889.04,631.68,888.72,632.32z M802.68,566.41c-0.1,1.78,0.77,3.84,0.94,5.24
		c1.3,7.54-0.91,24.44,7.66,24.5c3.42,0.03,8.41-1.49,11.13-2c6.67-1.03,12.65-3.02,13.01-8.36c0.37-5.46-5.01-13.1-9.49-15.86
		c-4.25-2.62-12.87-7.23-18.57-7.35c-1.24-0.03-2.31,0.2-3.29,1.06C803.29,564.34,802.74,565.27,802.68,566.41z"/>
	<path class="st2" d="M1025.72,594.62c-0.53,6.28-1.83,12.97-3.03,18.94c-1.28,6.43-2.89,11.76-11.22,16.5
		c-16.96,9.59-37.21,14.88-56.6,14.81c-5.97-0.02-12.23-0.51-18.41-1.43c-23.09-5.04-34.22-12.16-40.38-34.68
		c-2.11-7.7-4-17.57-3.2-27.34c2.86-34.73,35.09-45.47,64.46-49.71c17.09-2.47,50.1-9.25,61.57,9.66c3.64,6.96,6.7,14.1,6.82,22.22
		c0.12,8.31,0.06,16.92,0.24,25.11C1026.02,590.49,1025.89,592.58,1025.72,594.62z M984.3,601.18c0.17-1.88,0.08-3.59,0.25-5.46
		c0.17-1.88,0.58-3.77,0.74-5.51c0.21-2.31-0.32-4.4-0.09-6.99c0.12-1.3-0.59-12.17-1.24-12.94c-2.74-13.78-17.14-14.32-28.13-12.84
		c-10.76,1.44-14.98,7.35-16.75,12.86c-1.22,3.81-2.75,7.69-3.15,11.22c-1.83,16.24,2.48,39.12,23.85,38
		c6.21-0.32,10.96-3.22,16.39-5.39C982.13,611.74,983.87,605.94,984.3,601.18z"/>
	<path class="st2" d="M1139.86,496.18c0.37,2.82,1.89,13.37,1.85,16.46c-0.08,5.74-2.27,8.31-7.62,11.4
		c-7.98,4.61-15.78,11.33-23.8,14.35c-8.92,3.35-7.38-2.04-8.36-4.49c-1.76-4.41-1.74-16-8.78-13.2
		c-12.5,4.97-12.84,13.34-13.33,21.71c-1.23,20.89-1.81,42.25,3.46,62.84c1.13,4.58,3.91,9.85,13.35,8.86
		c2.6-0.27,4.99-1.29,8.09-2.63c11.69-5.26,7.77-12.39,11.96-20.87c2.34-1.46,4.64-2.13,6.93-2.6c5.27-1.08,11.41-1.3,17.33-2.57
		c1.82-0.39,3.71-0.92,5.68-1.45c6.81-1.86,8.19,0.67,8.39,9.04c0.22,9.55-2.57,22.21-8.47,30.13
		c-9.41,13.42-28.22,17.47-43.09,20.82c-5.33,1.24-11.52,2.33-17.16,2.23c-11.78-0.21-25.77-3.38-35.03-10.49
		c-8.87-6.81-10.54-19.14-12.23-29.78c-1.02-6.4-0.56-13.04-1.52-19.35c-0.87-5.69-0.58-18.93,0.06-26.78
		c0.35-4.33,0.57-8.84,0.95-14.53c1.74-26.03,28.29-43.38,49.7-53.21c4.33-1.99,8.59-3.81,13.19-6.09
		c6.97-3.44,12.66-3.75,19.11-5.98c7.29-2.53,14.15-2.57,17.11,3.3C1138.77,487.07,1139.3,491.94,1139.86,496.18z"/>
</g>
<g>
	<path d="M691.5,440.01c4.93,23.1,11.11,45.98,18.34,68.57c0.55,1.74,1.66,3.49,2.19,4.98c1.65,4.64-12.7-0.02-23.43-4.19
		c-5.37-2.09-8.5-2.59-11.2-8.8c-0.9-2.07-1.73-4.54-2.68-7.16c-12.33-34.12-21.17-69.92-29.46-105.11
		c-5.23-22.2-9.22-44.98-15.36-67.06c-0.65-2.69-1.48-7.86-3.09-9.98c-3.04-4.51-8.85-4.8-13.02-5.44c-1.75-0.27-3.51-0.54-5.26-0.8
		c-7.46-1.11-10.5-5.23-12.59-17.44c-0.78-4.58-0.93-9.06-1.32-12.6c-0.18-1.59-0.75-3.79-0.99-5.86c-0.64-5.5,2.49-5.93,8.07-5.71
		c2.79,0.11,5.8,0.52,8.11,0.79c16.54,2.04,33.25,4.15,48.87,8.51c7.36,2.06,15.26,4.26,22.74,6.45c3.87,1.13,12.35,1.57,12.72,8.8
		c0.09,1.87-0.29,4.32-0.28,5.94c0.05,7.62,2.92,15.53,3.68,22.89c0.86,8.28-0.78,11.57-5.23,10.6c-4.45-0.97-10.09-4.73-15.87-5.95
		c-6.42-1.35-8.04,0.72-6.05,14.06c2.83,18.92,7.15,37.93,11.01,56.81C684.64,408.2,688.12,424.17,691.5,440.01z"/>
	<path d="M851.74,521.36c0.78,3.41-3.97,3.96-6.75,5.13c-4.58,2.13-12.39,5.86-16.94,5.35c-3.8-0.42-7.83-5.93-10.41-10.42
		c-3.82-6.62-10.38-13.03-15.51-21.75c-4.87-8.28-11.73-23.46-20.28-25.13c-4.09-0.8-3.65,9.06-2.11,15.97
		c2.56,11.52,7.43,22.96,10.98,34.12c1,3.15-2.42,5.23-10.37,5.25c-4.32,0.01-10.07-0.71-14.01-1.08c-1.56-0.15-3.39-0.1-5.02-0.23
		c-1.46-0.12-2.96-0.38-4.49-1.19c-7.91-8.32-9.61-22.63-11.95-33.37c-0.71-3.26-1.17-6.38-1.91-9.88
		c-2.14-10.07-5.36-20.11-7.71-30.08c-3.78-16.06-6.55-32.8-9.82-49.02c-5.08-25.21-10.83-50.78-15.32-76.2
		c-1.74-9.86-2.31-20.03-4-29.85c-0.96-5.57-2.15-11.29-2.25-16.02c-0.12-5.55,1.79-7.84,6.83-7.25c4.62,0.54,10.17,1.65,15.38,2.95
		c18.09,4.54,37.23,11.93,51.09,24.86c6.77,6.77,12.07,15.8,16.85,24c13.99,22.71,24.29,46.96,27.81,73.54
		c1.18,8.88,1.67,17.68,0.52,25.16c-1.43,9.28-7.23,19.02-6.04,26.21c0.31,1.88,1.02,3.81,1.96,6.06
		c8.68,19.97,19.37,38.52,30.51,57.19C849.91,517.75,851.38,519.76,851.74,521.36z M750.36,342.55
		c2.39,21.29,7.18,42.82,11.07,63.88c1.21,6.58,2.78,9.63,6.28,9.95c15.38,1.42,15.99-17.71,15.28-27.57
		c-0.85-11.9-7.91-22.8-13.98-33.55c-4.14-7.86-9.45-19.77-16.31-22.67c-0.85-0.36-2.08,0.72-2.42,2.98
		C750.02,337.27,750.05,339.75,750.36,342.55z"/>
	<path d="M901.2,388.81c-1.24-11.59-2.55-23.39-4.26-35.02c-0.34-2.47-1.35-6.53-1.49-9.55c-0.38-8.06,6.13-4.59,11.2-3.57
		c3.42,0.69,7.4,1.4,11.13,2.42c6.84,1.89,10.95,1.6,11.3,9.21c0.36,7.8,2.5,16.73,4.25,26.22c4.91,26.67,7.97,54.02,10.12,80.88
		c1,12.46,1.9,25.42,1.94,37.68c0.07,18.78-21.99,37.69-40.24,38.43c-17.07,0.69-32.36-12-40.95-26.09
		c-10.71-17.57-15.59-38.14-19.82-58.22c-2.46-11.68-4.93-23.49-6.54-35.12c-3.96-28.48-5.4-58.18-7.46-87.33
		c-0.3-4.26-0.28-7.24,3.91-6.62c7.39,1.1,15.63,3.12,23.73,5.8c5.06,1.67,5.75,3.76,5.96,7.53c0.09,1.68,0.16,3.45,0.29,4.95
		c0.32,3.73,0.73,8.01,1.01,12.12c1.23,17.81,2.04,35.99,3.84,53.61c2.32,22.75,6.62,45.76,11.71,68.15
		c2.18,9.6,7.84,22.42,19.07,22.88c5.3,0.22,10.02-4.63,11.08-11.9c0.84-5.75,0.14-15.5-0.39-20.54
		c-1.82-17.01-4.15-34.2-6.07-51.13C903.59,405.47,902.03,396.56,901.2,388.81z"/>
	<path d="M1055.86,392.61c-0.32,8.22-1.47,9.75-11.17,11.22c-5.7,0.86-11.66,1.83-17.37,2.02c-13.37,0.45-6.07-17.77-18.45-18.99
		c-2.53-0.25-5.41,0.35-7.97,1.09c-16.92,4.79-14.41,27.79-13.18,40.95c1.27,13.58,3.7,26.48,7.14,39.68
		c1.8,6.92,2.58,14.6,8.4,17.93c4.82,2.76,11.53,2.6,17.34,0.67c6.74-2.24,12.96-10.29,12.84-15.36c-0.02-0.87-0.05-2.1-0.07-3.33
		c-0.14-7.05,5.16-7.32,9.47-9.17c1.95-0.84,5.94-2.48,9.59-3.82c8.32-3.05,9.48-2.47,8.93,3.76c-0.34,3.89-1.28,8.53-1.6,11.06
		c-0.85,6.66-0.59,9.87-5.09,17.3c-3.78,6.26-9.68,11.16-15.27,15.13c-6.53,4.64-14.18,9.83-21.85,12.78
		c-4.2,1.62-11.07,3.56-16.6,3.95c-3.95,0.28-7.63-1.06-11.72-1.1c-17.24,1.43-25.32-15.86-28.3-29.77
		c-5.34-24.89-8.7-49.98-10.54-75.32c-1.04-14.33-2.1-34.66,8.17-46.29c12.29-13.92,34.34-10.49,50.29-8.54
		c14.42,1.76,33.64,6.54,43.63,18.65C1054.47,379.62,1056.09,386.48,1055.86,392.61z"/>
</g>
</svg>
